P3
4 4
255
254 254 254   198 198 198   139 139 139   254 254 254   
254 254 254   226 226 226   226 226 226   127 127 127   
139 139 139   139 139 139   127 127 127   127 127 127   
132 132 132   139 139 139   132 132 132   127 127 127   
