P3
4 4
255
255 255 255   255 251 64   84 227 126   255 255 255   
255 255 255   255 255 226   255 255 226   177 177 177   
84 227 126   84 227 126   177 177 177   177 177 177   
235 172 137   84 227 126   235 172 137   177 177 177   
