P3
4 4
255
205 205 205   205 151 0   0 127 26   205 205 205   
205 205 205   189 178 126   189 178 126   77 77 77   
0 127 26   0 127 26   77 77 77   77 77 77   
135 72 37   0 127 26   135 72 37   77 77 77   
