P3
4 4
255
255 255 255   255 255 255   177 177 177   255 255 255   
255 255 255   239 239 239   239 239 239   127 127 127   
177 177 177   177 177 177   127 127 127   127 127 127   
185 185 185   177 177 177   185 185 185   127 127 127   
