P3
4 4
255
255 255 255   255 221 34   54 197 96   255 255 255   
255 255 255   255 248 196   255 248 196   147 147 147   
54 197 96   54 197 96   147 147 147   147 147 147   
205 142 107   54 197 96   205 142 107   147 147 147   
