P3
4 4
255
255 255 255   201 201 201   177 177 177   255 255 255   
255 255 255   228 228 228   228 228 228   127 127 127   
177 177 177   177 177 177   127 127 127   127 127 127   
122 122 122   177 177 177   122 122 122   127 127 127   
