P3
4 4
255
255 255 255   34 177 76   255 201 14   255 255 255   
127 127 127   239 228 176   239 228 176   255 255 255   
127 127 127   127 127 127   34 177 76   34 177 76   
127 127 127   185 122 87   34 177 76   185 122 87   
