P3
4 4
255
255 255 255   14 14 14   76 76 76   255 255 255   
255 255 255   176 176 176   176 176 176   127 127 127   
76 76 76   76 76 76   127 127 127   127 127 127   
87 87 87   76 76 76   87 87 87   127 127 127   
