P3
4 4
255
255 255 255   255 255 255   34 34 34   255 255 255   
255 255 255   239 239 239   239 239 239   127 127 127   
34 34 34   34 34 34   127 127 127   127 127 127   
185 185 185   34 34 34   185 185 185   127 127 127   
